Coordinates
version=1
nRows=29
nColumns=24
inDegrees=yes

Units are S.I. units (second, meters, Newtons, ...)
Angles are in degrees.

endheader
time	pelvis_tilt	pelvis_list	pelvis_rotation	pelvis_tx	pelvis_ty	pelvis_tz	hip_flexion_r	hip_adduction_r	hip_rotation_r	knee_angle_r	ankle_angle_r	subtalar_angle_r	mtp_angle_r	hip_flexion_l	hip_adduction_l	hip_rotation_l	knee_angle_l	ankle_angle_l	subtalar_angle_l	mtp_angle_l	lumbar_extension	lumbar_bending	lumbar_rotation
      0.01000000	     92.91060392	     17.11807451	    -93.78902483	      0.35524268	      0.28607010	      1.01497689	      6.83278116	     -6.52940887	    -14.28778584	    -10.08279936	    -45.71530649	     -1.74545602	    -25.17324631	    -11.93340333	    -17.03676288	    -11.08721591	    -60.33022734	    -24.52264541	     -0.14557499	     73.45799169	      0.00000000	      0.00000000	      0.00000000
      0.02000000	     92.90575348	     17.12005429	    -93.78791241	      0.35523103	      0.28606700	      1.01497395	      6.83721182	     -6.52689606	    -14.28140807	    -10.08328042	    -45.71582302	     -1.74545602	    -25.17324631	    -11.93055820	    -17.04217264	    -11.08984526	    -60.33180533	    -24.51895651	     -0.14557499	     73.45799169	      0.00000000	      0.00000000	      0.00000000
      0.03000000	     92.89908824	     17.12297402	    -93.78738761	      0.35522805	      0.28607189	      1.01497264	      6.84120581	     -6.52694787	    -14.27598411	    -10.08258934	    -45.71619336	     -1.74545602	    -25.17324631	    -11.92861947	    -17.04803489	    -11.09104232	    -60.33308971	    -24.51576993	     -0.14557499	     73.45799169	      0.00000000	      0.00000000	      0.00000000
      0.04000000	     92.89198279	     17.12606832	    -93.78680589	      0.35523022	      0.28607848	      1.01497487	      6.84423049	     -6.52852802	    -14.27213714	    -10.08098851	    -45.71637029	     -1.74545602	    -25.17324631	    -11.92736362	    -17.05339943	    -11.09091956	    -60.33401070	    -24.51333195	     -0.14557499	     73.45799169	      0.00000000	      0.00000000	      0.00000000
      0.05000000	     92.88578146	     17.12871428	    -93.78573882	      0.35523511	      0.28608668	      1.01498153	      6.84551042	     -6.53098956	    -14.27053688	    -10.07898749	    -45.71631058	     -1.74545602	    -25.17324631	    -11.92659262	    -17.05726779	    -11.08959393	    -60.33458317	    -24.51191646	     -0.14557499	     73.45799169	      0.00000000	      0.00000000	      0.00000000
      0.06000000	     92.88138072	     17.13049903	    -93.78412229	      0.35523945	      0.28609738	      1.01499074	      6.84443251	     -6.53438387	    -14.27158638	    -10.07723533	    -45.71594337	     -1.74545602	    -25.17324631	    -11.92616624	    -17.05898691	    -11.08723094	    -60.33491180	    -24.51168685	     -0.14557499	     73.45799169	      0.00000000	      0.00000000	      0.00000000
      0.07000000	     92.87917162	     17.13107874	    -93.78217430	      0.35524250	      0.28610767	      1.01500052	      6.84100209	     -6.53909114	    -14.27521366	    -10.07632983	    -45.71510248	     -1.74545602	    -25.17324631	    -11.92595221	    -17.05845092	    -11.08411195	    -60.33510952	    -24.51259734	     -0.14557499	     73.45799169	      0.00000000	      0.00000000	      0.00000000
      0.08000000	     92.87916087	     17.13023046	    -93.78024926	      0.35524564	      0.28611371	      1.01500640	      6.83592460	     -6.54517432	    -14.28085897	    -10.07670138	    -45.71347798	     -1.74545602	    -25.17324631	    -11.92579034	    -17.05606065	    -11.08064318	    -60.33522173	    -24.51437649	     -0.14557499	     73.45799169	      0.00000000	      0.00000000	      0.00000000
      0.09000000	     92.88091076	     17.12805000	    -93.77863729	      0.35524590	      0.28611277	      1.01500185	      6.83035063	     -6.55209901	    -14.28765698	    -10.07851226	    -45.71062842	     -1.74545602	    -25.17324631	    -11.92554518	    -17.05248243	    -11.07730155	    -60.33523555	    -24.51658006	     -0.14557499	     73.45799169	      0.00000000	      0.00000000	      0.00000000
      0.10000000	     92.88338720	     17.12508044	    -93.77741626	      0.35524021	      0.28610569	      1.01498947	      6.82544342	     -6.55892760	    -14.29475650	    -10.08157188	    -45.70608321	     -1.74545602	    -25.17324631	    -11.92519389	    -17.04837913	    -11.07452143	    -60.33514463	    -24.51867456	     -0.14557499	     73.45799169	      0.00000000	      0.00000000	      0.00000000
      0.11000000	     92.88526890	     17.12227201	    -93.77642738	      0.35523144	      0.28609922	      1.01497838	      6.82179607	     -6.56461499	    -14.30167529	    -10.08546272	    -45.69953976	     -1.74545602	    -25.17324631	    -11.92484468	    -17.04425737	    -11.07255019	    -60.33496621	    -24.52012853	     -0.14557499	     73.45799169	      0.00000000	      0.00000000	      0.00000000
      0.12000000	     92.88560062	     17.12048489	    -93.77529392	      0.35522569	      0.28610177	      1.01497250	      6.81916605	     -6.56828467	    -14.30853551	    -10.08978177	    -45.69110681	     -1.74545602	    -25.17324631	    -11.92465265	    -17.04044985	    -11.07135053	    -60.33466844	    -24.52051383	     -0.14557499	     73.45799169	      0.00000000	      0.00000000	      0.00000000
      0.13000000	     92.88419947	     17.11976776	    -93.77342172	      0.35522822	      0.28611505	      1.01497178	      6.81680308	     -6.56954246	    -14.31608904	    -10.09430495	    -45.68149160	     -1.74545602	    -25.17324631	    -11.92476838	    -17.03716935	    -11.07061426	    -60.33408519	    -24.51961213	     -0.14557499	     73.45799169	      0.00000000	      0.00000000	      0.00000000
      0.14000000	     92.88162321	     17.11916966	    -93.77009868	      0.35523709	      0.28613130	      1.01497524	      6.81395331	     -6.56866176	    -14.32556306	    -10.09909949	    -45.67198402	     -1.74545602	    -25.17324631	    -11.92543132	    -17.03455508	    -11.06989551	    -60.33291037	    -24.51749572	     -0.14557499	     73.45799169	      0.00000000	      0.00000000	      0.00000000
      0.15000000	     92.87875632	     17.11730467	    -93.76489176	      0.35524116	      0.28614264	      1.01498057	      6.81010220	     -6.56646009	    -14.33834297	    -10.10458894	    -45.66412696	     -1.74545602	    -25.17324631	    -11.92708736	    -17.03265812	    -11.06882155	    -60.33081710	    -24.51454384	     -0.14557499	     73.45799169	      0.00000000	      0.00000000	      0.00000000
      0.16000000	     92.87618987	     17.11325386	    -93.75815126	      0.35523368	      0.28615117	      1.01498634	      6.80487200	     -6.56394861	    -14.35541336	    -10.11147120	    -45.65912112	     -1.74545602	    -25.17324631	    -11.93037157	    -17.03132088	    -11.06731303	    -60.32769022	    -24.51136960	     -0.14557499	     73.45799169	      0.00000000	      0.00000000	      0.00000000
      0.17000000	     92.87393410	     17.10698196	    -93.75112408	      0.35522251	      0.28616459	      1.01499327	      6.79791708	     -6.56189547	    -14.37651525	    -10.12032438	    -45.65717754	     -1.74545602	    -25.17324631	    -11.93587559	    -17.03005901	    -11.06567335	    -60.32383210	    -24.50867078	     -0.14557499	     73.45799169	      0.00000000	      0.00000000	      0.00000000
      0.18000000	     92.87183726	     17.09883997	    -93.74536750	      0.35521685	      0.28618260	      1.01500273	      6.78912345	     -6.56042335	    -14.39917782	    -10.13091844	    -45.65710336	     -1.74545602	    -25.17324631	    -11.94377091	    -17.02811971	    -11.06444317	    -60.31998352	    -24.50705936	     -0.14557499	     73.45799169	      0.00000000	      0.00000000	      0.00000000
      0.19000000	     92.87034122	     17.08890004	    -93.74176216	      0.35521330	      0.28619470	      1.01501338	      6.77873624	     -6.55885627	    -14.41804579	    -10.14170542	    -45.65635663	     -1.74545602	    -25.17324631	    -11.95350153	    -17.02480444	    -11.06408422	    -60.31712565	    -24.50691837	     -0.14557499	     73.45799169	      0.00000000	      0.00000000	      0.00000000
      0.20000000	     92.87076474	     17.07707102	    -93.73994313	      0.35520134	      0.28619450	      1.01501816	      6.76692743	     -6.55614687	    -14.42509627	    -10.15000278	    -45.65165203	     -1.74545602	    -25.17324631	    -11.96366822	    -17.02008595	    -11.06462831	    -60.31610778	    -24.50830724	     -0.14557499	     73.45799169	      0.00000000	      0.00000000	      0.00000000
      0.21000000	     92.87439573	     17.06393949	    -93.73860248	      0.35517728	      0.28618923	      1.01501058	      6.75315868	     -6.55207899	    -14.41122223	    -10.15283171	    -45.63998764	     -1.74545602	    -25.17324631	    -11.97219953	    -17.01517331	    -11.06547598	    -60.31724681	    -24.51094376	     -0.14557499	     73.45799169	      0.00000000	      0.00000000	      0.00000000
      0.22000000	     92.88074130	     17.05146938	    -93.73629965	      0.35514992	      0.28618520	      1.01499197	      6.73621229	     -6.54850583	    -14.36919545	    -10.14794441	    -45.61977092	     -1.74545602	    -25.17324631	    -11.97696867	    -17.01227597	    -11.06557298	    -60.32017401	    -24.51429027	     -0.14557499	     73.45799169	      0.00000000	      0.00000000	      0.00000000
      0.23000000	     92.88691020	     17.04265756	    -93.73218463	      0.35513132	      0.28616761	      1.01496517	      6.71524472	     -6.54885564	    -14.29726815	    -10.13467779	    -45.59166367	     -1.74545602	    -25.17324631	    -11.97669540	    -17.01328450	    -11.06399367	    -60.32407521	    -24.51772445	     -0.14557499	     73.45799169	      0.00000000	      0.00000000	      0.00000000
      0.24000000	     92.88990973	     17.03990370	    -93.72642020	      0.35512737	      0.28611932	      1.01493059	      6.69131534	     -6.55494823	    -14.20182900	    -10.11447875	    -45.55886028	     -1.74545602	    -25.17324631	    -11.97155923	    -17.01821709	    -11.06060819	    -60.32813707	    -24.52072047	     -0.14557499	     73.45799169	      0.00000000	      0.00000000	      0.00000000
      0.25000000	     92.89001604	     17.04310178	    -93.72023794	      0.35513752	      0.28606561	      1.01489984	      6.66824020	     -6.56385547	    -14.09708535	    -10.09077853	    -45.52664826	     -1.74545602	    -25.17324631	    -11.96306043	    -17.02486947	    -11.05634132	    -60.33185582	    -24.52295893	     -0.14557499	     73.45799169	      0.00000000	      0.00000000	      0.00000000
      0.26000000	     92.89034270	     17.04976079	    -93.71550482	      0.35515553	      0.28605168	      1.01489004	      6.65122315	     -6.56980548	    -14.00073410	    -10.06807443	    -45.50120913	     -1.74545602	    -25.17324631	    -11.95317684	    -17.03026165	    -11.05277087	    -60.33500735	    -24.52433436	     -0.14557499	     73.45799169	      0.00000000	      0.00000000	      0.00000000
      0.27000000	     92.89283609	     17.05731830	    -93.71395637	      0.35517096	      0.28607311	      1.01489496	      6.64388174	     -6.56972859	    -13.92750703	    -10.05049082	    -45.48782034	     -1.74545602	    -25.17324631	    -11.94343120	    -17.03274095	    -11.05134537	    -60.33741737	    -24.52488869	     -0.14557499	     73.45799169	      0.00000000	      0.00000000	      0.00000000
      0.28000000	     92.89654482	     17.06472461	    -93.71649086	      0.35517615	      0.28608719	      1.01489299	      6.64669701	     -6.56517344	    -13.88438076	    -10.04032891	    -45.48898872	     -1.74545602	    -25.17324631	    -11.93458046	    -17.03288862	    -11.05279113	    -60.33885459	    -24.52472536	     -0.14557499	     73.45799169	      0.00000000	      0.00000000	      0.00000000
      0.29000000	     92.89931390	     17.07222602	    -93.72280780	      0.35517277	      0.28607694	      1.01487920	      6.65760073	     -6.55948167	    -13.86951334	    -10.03740703	    -45.50325308	     -1.74545602	    -25.17324631	    -11.92698030	    -17.03263097	    -11.05700351	    -60.33914575	    -24.52393355	     -0.14557499	     73.45799169	      0.00000000	      0.00000000	      0.00000000
